<svg width="64" height="64" viewBox="0 0 64 64" fill="none" xmlns="http://www.w3.org/2000/svg">
<mask id="mask0_1_2201" style="mask-type:alpha" maskUnits="userSpaceOnUse" x="0" y="0" width="64" height="64">
<rect width="64" height="64" fill="#D9D9D9"/>
</mask>
<g mask="url(#mask0_1_2201)">
<path d="M30.9747 33.0253H17.0253C16.7351 33.0253 16.4916 32.9258 16.2947 32.7267C16.0982 32.5271 16 32.28 16 31.9853C16 31.6907 16.0982 31.4484 16.2947 31.2587C16.4916 31.0693 16.7351 30.9747 17.0253 30.9747H30.9747V17.0253C30.9747 16.7351 31.0742 16.4916 31.2733 16.2947C31.4729 16.0982 31.72 16 32.0147 16C32.3093 16 32.5516 16.0982 32.7413 16.2947C32.9307 16.4916 33.0253 16.7351 33.0253 17.0253V30.9747H46.9747C47.2649 30.9747 47.5084 31.0742 47.7053 31.2733C47.9018 31.4729 48 31.72 48 32.0147C48 32.3093 47.9018 32.5516 47.7053 32.7413C47.5084 32.9307 47.2649 33.0253 46.9747 33.0253H33.0253V46.9747C33.0253 47.2649 32.9258 47.5084 32.7267 47.7053C32.5271 47.9018 32.28 48 31.9853 48C31.6907 48 31.4484 47.9018 31.2587 47.7053C31.0693 47.5084 30.9747 47.2649 30.9747 46.9747V33.0253Z" fill="#004C84"/>
</g>
</svg>
