<svg width="20" height="20" viewBox="0 0 20 20" fill="none" xmlns="http://www.w3.org/2000/svg">
<path d="M17.575 5.81676C16.8667 5.03343 15.6834 4.64176 13.9667 4.64176H13.7667V4.60843C13.7667 3.20843 13.7667 1.4751 10.6334 1.4751H9.36669C6.23335 1.4751 6.23335 3.21676 6.23335 4.60843V4.6501H6.03335C4.30835 4.6501 3.13335 5.04176 2.42502 5.8251C1.60002 6.74176 1.62502 7.9751 1.70835 8.81676L1.71669 8.8751L1.80002 9.7501C1.80835 9.75843 1.82502 9.7751 1.84169 9.78343C2.11669 9.96676 2.40002 10.1501 2.70002 10.3168C2.81669 10.3918 2.94169 10.4584 3.06669 10.5251C4.49169 11.3084 6.05835 11.8334 7.65002 12.0918C7.72502 12.8751 8.06669 13.7918 9.89169 13.7918C11.7167 13.7918 12.075 12.8834 12.1334 12.0751C13.8334 11.8001 15.475 11.2084 16.9584 10.3418C17.0084 10.3168 17.0417 10.2918 17.0834 10.2668C17.4667 10.0501 17.825 9.81676 18.175 9.55843C18.1917 9.5501 18.2084 9.53343 18.2167 9.51676L18.25 9.21676L18.2917 8.8251C18.3 8.7751 18.3 8.73343 18.3084 8.6751C18.375 7.83343 18.3584 6.68343 17.575 5.81676ZM10.9084 11.5251C10.9084 12.4084 10.9084 12.5418 9.88335 12.5418C8.85835 12.5418 8.85835 12.3834 8.85835 11.5334V10.4834H10.9084V11.5251ZM7.42502 4.64176V4.60843C7.42502 3.19176 7.42502 2.66676 9.36669 2.66676H10.6334C12.575 2.66676 12.575 3.2001 12.575 4.60843V4.6501H7.42502V4.64176Z" fill="#004C84"/>
<path opacity="0.2" d="M17.0835 10.25C17.0418 10.275 17.0001 10.3 16.9585 10.325C15.4751 11.1917 13.8335 11.775 12.1335 12.0583C12.0668 12.8583 11.7168 13.775 9.89181 13.775C8.06681 13.775 7.71681 12.8667 7.65014 12.075C6.05847 11.825 4.49181 11.3 3.06681 10.5083C2.94181 10.4417 2.81681 10.375 2.70014 10.3C2.40014 10.1333 2.11681 9.95 1.84181 9.76667C1.82514 9.75833 1.80847 9.74167 1.80014 9.73333L2.30847 15.1583C2.48347 16.8167 3.16681 18.525 6.83347 18.525H13.1835C16.8501 18.525 17.5335 16.8167 17.7085 15.15L18.2335 9.5C18.2251 9.51667 18.2085 9.53333 18.1918 9.54167C17.8335 9.8 17.4668 10.0417 17.0835 10.25Z" fill="#004C84"/>
</svg>
