<svg width="20" height="20" viewBox="0 0 20 20" fill="none" xmlns="http://www.w3.org/2000/svg">
<path opacity="0.2" d="M9.99999 18.3332C14.6024 18.3332 18.3333 14.6022 18.3333 9.99984C18.3333 5.39746 14.6024 1.6665 9.99999 1.6665C5.39762 1.6665 1.66666 5.39746 1.66666 9.99984C1.66666 14.6022 5.39762 18.3332 9.99999 18.3332Z" fill="#004B84"/>
<path d="M14.2917 7.8667C13.9417 7.05837 13.2833 6.43337 12.375 6.15004V5.4917C12.375 5.15003 12.0917 4.8667 11.75 4.8667C11.4083 4.8667 11.125 5.15003 11.125 5.4917V5.98336H8.86668V5.4917C8.86668 5.15003 8.58335 4.8667 8.24168 4.8667C7.90001 4.8667 7.61668 5.15003 7.61668 5.4917V6.15004C6.70835 6.43337 6.05 7.05837 5.7 7.8667C5.58333 8.1417 5.78332 8.45836 6.08332 8.45836H13.8917C14.2083 8.45003 14.4083 8.1417 14.2917 7.8667Z" fill="#004B84"/>
<path d="M14.1668 9.2832C14.4001 9.2832 14.5835 9.46654 14.5835 9.69987V11.8082C14.5835 13.6415 13.3335 15.1415 11.2501 15.1415H8.75014C6.66681 15.1415 5.41681 13.6415 5.41681 11.8082V9.69987C5.41681 9.46654 5.60014 9.2832 5.83348 9.2832H14.1668Z" fill="#004B84"/>
</svg>
