<svg width="196" height="196" viewBox="0 0 196 196" fill="none" xmlns="http://www.w3.org/2000/svg">
<mask id="mask0_1_5088" style="mask-type:alpha" maskUnits="userSpaceOnUse" x="0" y="0" width="196" height="196">
<rect width="196" height="196" fill="#D9D9D9"/>
</mask>
<g mask="url(#mask0_1_5088)">
<path d="M77.9917 123.725L147.204 54.5125C148.838 52.8792 150.743 52.0625 152.921 52.0625C155.099 52.0625 157.004 52.8792 158.638 54.5125C160.271 56.1458 161.088 58.0854 161.088 60.3313C161.088 62.5771 160.271 64.5167 158.638 66.15L83.7084 141.283C82.0751 142.917 80.1695 143.733 77.9917 143.733C75.814 143.733 73.9084 142.917 72.2751 141.283L37.1584 106.167C35.5251 104.533 34.7424 102.594 34.8105 100.348C34.8785 98.1021 35.7292 96.1625 37.3626 94.5292C38.9959 92.8958 40.9355 92.0792 43.1813 92.0792C45.4271 92.0792 47.3667 92.8958 49.0001 94.5292L77.9917 123.725Z" fill="#004B84"/>
</g>
</svg>
