<svg width="24" height="24" viewBox="0 0 24 24" fill="none" xmlns="http://www.w3.org/2000/svg">
<mask id="mask0_1_2584" style="mask-type:alpha" maskUnits="userSpaceOnUse" x="0" y="0" width="24" height="24">
<rect y="24" width="24" height="24" transform="rotate(-90 0 24)" fill="#D9D9D9"/>
</mask>
<g mask="url(#mask0_1_2584)">
<path d="M11.9942 14.1961L16.477 9.69411C16.55 9.62094 16.6384 9.58536 16.7422 9.58736C16.8461 9.58936 16.941 9.63327 17.027 9.71911C17.1128 9.80494 17.1557 9.89752 17.1557 9.99686C17.1557 10.0964 17.1128 10.189 17.027 10.2749L12.4807 14.8211C12.4102 14.8916 12.3333 14.9435 12.25 14.9769C12.1667 15.0102 12.0814 15.0269 11.9942 15.0269C11.8942 15.0269 11.8057 15.0102 11.7287 14.9769C11.6519 14.9435 11.5782 14.8916 11.5077 14.8211L6.93649 10.2691C6.86349 10.1959 6.82374 10.1033 6.81724 9.99111C6.81091 9.87894 6.85066 9.77994 6.93649 9.69411C7.02249 9.62094 7.11833 9.58436 7.22399 9.58436C7.32983 9.58436 7.41924 9.62094 7.49224 9.69411L11.9942 14.1961Z" fill="#848F98"/>
</g>
</svg>
