<svg width="20" height="20" viewBox="0 0 20 20" fill="none" xmlns="http://www.w3.org/2000/svg">
<mask id="mask0_1_8299" style="mask-type:alpha" maskUnits="userSpaceOnUse" x="0" y="0" width="20" height="20">
<rect x="20" y="20" width="20" height="20" transform="rotate(180 20 20)" fill="#D9D9D9"/>
</mask>
<g mask="url(#mask0_1_8299)">
<path d="M11.8302 10.0046L8.0785 6.269C8.01753 6.20817 7.98788 6.13449 7.98954 6.04796C7.99121 5.96143 8.02781 5.88233 8.09934 5.81067C8.17086 5.73914 8.24802 5.70338 8.33079 5.70338C8.41371 5.70338 8.49093 5.73914 8.56246 5.81067L12.351 9.59921C12.4098 9.65796 12.453 9.72206 12.4808 9.7915C12.5086 9.86095 12.5225 9.93199 12.5225 10.0046C12.5225 10.088 12.5086 10.1617 12.4808 10.2259C12.453 10.2899 12.4098 10.3513 12.351 10.41L8.55767 14.2194C8.4967 14.2803 8.41948 14.3134 8.326 14.3188C8.23253 14.3241 8.15003 14.2909 8.0785 14.2194C8.01753 14.1478 7.98704 14.0679 7.98704 13.9798C7.98704 13.8916 8.01753 13.8171 8.0785 13.7563L11.8302 10.0046Z" fill="#001C31"/>
</g>
</svg>
