<svg width="24" height="24" viewBox="0 0 24 24" fill="none" xmlns="http://www.w3.org/2000/svg">
<mask id="mask0_1_3420" style="mask-type:alpha" maskUnits="userSpaceOnUse" x="0" y="0" width="24" height="24">
<rect width="24" height="24" fill="#D9D9D9"/>
</mask>
<g mask="url(#mask0_1_3420)">
<path d="M9.80365 11.9941L14.3056 16.4768C14.3788 16.5498 14.4144 16.6382 14.4124 16.7421C14.4104 16.8459 14.3665 16.9408 14.2806 17.0268C14.1948 17.1126 14.1022 17.1556 14.0029 17.1556C13.9034 17.1556 13.8107 17.1126 13.7249 17.0268L9.17865 12.4806C9.10815 12.4101 9.05623 12.3331 9.0229 12.2498C8.98957 12.1665 8.9729 12.0812 8.9729 11.9941C8.9729 11.8941 8.98957 11.8056 9.0229 11.7286C9.05623 11.6517 9.10815 11.5781 9.17865 11.5076L13.7306 6.93631C13.8038 6.86331 13.8965 6.82356 14.0086 6.81706C14.1208 6.81073 14.2198 6.85048 14.3056 6.93631C14.3788 7.02231 14.4154 7.11814 14.4154 7.22381C14.4154 7.32964 14.3788 7.41906 14.3056 7.49206L9.80365 11.9941Z" fill="#004B84"/>
</g>
</svg>
