<svg width="24" height="24" viewBox="0 0 24 24" fill="none" xmlns="http://www.w3.org/2000/svg">
<mask id="mask0_65_209" style="mask-type:alpha" maskUnits="userSpaceOnUse" x="0" y="0" width="24" height="24">
<rect y="24" width="24" height="24" transform="rotate(-90 0 24)" fill="#D9D9D9"/>
</mask>
<g mask="url(#mask0_65_209)">
<path d="M11.9941 14.1961L16.4768 9.69411C16.5498 9.62094 16.6382 9.58536 16.7421 9.58736C16.8459 9.58936 16.9408 9.63327 17.0268 9.71911C17.1126 9.80494 17.1556 9.89752 17.1556 9.99686C17.1556 10.0964 17.1126 10.189 17.0268 10.2749L12.4806 14.8211C12.4101 14.8916 12.3331 14.9435 12.2498 14.9769C12.1665 15.0102 12.0812 15.0269 11.9941 15.0269C11.8941 15.0269 11.8056 15.0102 11.7286 14.9769C11.6517 14.9435 11.5781 14.8916 11.5076 14.8211L6.93631 10.2691C6.86331 10.1959 6.82356 10.1033 6.81706 9.99111C6.81073 9.87894 6.85048 9.77994 6.93631 9.69411C7.02231 9.62094 7.11814 9.58436 7.22381 9.58436C7.32964 9.58436 7.41906 9.62094 7.49206 9.69411L11.9941 14.1961Z" fill="#004B84"/>
</g>
</svg>
