<svg width="64" height="64" viewBox="0 0 64 64" fill="none" xmlns="http://www.w3.org/2000/svg">
<mask id="mask0_1_2139" style="mask-type:alpha" maskUnits="userSpaceOnUse" x="0" y="0" width="64" height="64">
<rect width="64" height="64" fill="#D9D9D9"/>
</mask>
<g mask="url(#mask0_1_2139)">
<path d="M26.1431 31.9846L38.1484 43.9386C38.3435 44.1332 38.4384 44.369 38.4331 44.6459C38.4277 44.9228 38.3106 45.1759 38.0817 45.4052C37.8528 45.6341 37.606 45.7486 37.3411 45.7486C37.0757 45.7486 36.8286 45.6341 36.5997 45.4052L24.4764 33.2819C24.2884 33.0939 24.15 32.8888 24.0611 32.6666C23.9722 32.4443 23.9277 32.217 23.9277 31.9846C23.9277 31.7179 23.9722 31.4819 24.0611 31.2766C24.15 31.0717 24.2884 30.8752 24.4764 30.6872L36.6151 18.4972C36.8102 18.3026 37.0573 18.1966 37.3564 18.1792C37.6555 18.1623 37.9195 18.2683 38.1484 18.4972C38.3435 18.7266 38.4411 18.9821 38.4411 19.2639C38.4411 19.5461 38.3435 19.7846 38.1484 19.9792L26.1431 31.9846Z" fill="#848F98"/>
</g>
</svg>
