<svg width="64" height="64" viewBox="0 0 64 64" fill="none" xmlns="http://www.w3.org/2000/svg">
<mask id="mask0_1_2151" style="mask-type:alpha" maskUnits="userSpaceOnUse" x="0" y="0" width="64" height="64">
<rect x="64" y="64" width="64" height="64" transform="rotate(-180 64 64)" fill="#D9D9D9"/>
</mask>
<g mask="url(#mask0_1_2151)">
<path d="M37.8569 32.0154L25.8516 20.0614C25.6565 19.8668 25.5616 19.631 25.5669 19.3541C25.5723 19.0772 25.6894 18.8241 25.9183 18.5948C26.1472 18.3659 26.394 18.2514 26.6589 18.2514C26.9243 18.2514 27.1714 18.3659 27.4003 18.5948L39.5236 30.7181C39.7116 30.9061 39.85 31.1112 39.9389 31.3334C40.0278 31.5557 40.0723 31.783 40.0723 32.0154C40.0723 32.2821 40.0278 32.5181 39.9389 32.7234C39.85 32.9283 39.7116 33.1248 39.5236 33.3128L27.3849 45.5028C27.1898 45.6974 26.9427 45.8034 26.6436 45.8208C26.3445 45.8377 26.0805 45.7317 25.8516 45.5028C25.6565 45.2734 25.5589 45.0179 25.5589 44.7361C25.5589 44.4539 25.6565 44.2154 25.8516 44.0208L37.8569 32.0154Z" fill="#D9D9D9"/>
</g>
</svg>
