<svg width="32" height="32" viewBox="0 0 32 32" fill="none" xmlns="http://www.w3.org/2000/svg">
<mask id="mask0_1_4865" style="mask-type:alpha" maskUnits="userSpaceOnUse" x="0" y="0" width="32" height="32">
<rect width="32" height="32" fill="#848F98"/>
</mask>
<g mask="url(#mask0_1_4865)">
<path d="M15.9999 17.1795L9.01024 24.1695C8.84957 24.3301 8.65513 24.4126 8.4269 24.4168C8.19868 24.421 7.9999 24.3386 7.83057 24.1695C7.66146 24.0001 7.5769 23.8035 7.5769 23.5795C7.5769 23.3557 7.66146 23.1592 7.83057 22.9898L14.8206 16.0001L7.83057 9.01048C7.6699 8.84982 7.58746 8.65537 7.58324 8.42715C7.57902 8.19893 7.66146 8.00015 7.83057 7.83081C7.9999 7.6617 8.19657 7.57715 8.42057 7.57715C8.64435 7.57715 8.8409 7.6617 9.01024 7.83081L15.9999 14.8208L22.9896 7.83081C23.1502 7.67015 23.3447 7.5877 23.5729 7.58348C23.8011 7.57926 23.9999 7.6617 24.1692 7.83081C24.3384 8.00015 24.4229 8.19682 24.4229 8.42082C24.4229 8.64459 24.3384 8.84115 24.1692 9.01048L17.1792 16.0001L24.1692 22.9898C24.3299 23.1505 24.4123 23.3449 24.4166 23.5731C24.4208 23.8014 24.3384 24.0001 24.1692 24.1695C23.9999 24.3386 23.8032 24.4231 23.5792 24.4231C23.3555 24.4231 23.1589 24.3386 22.9896 24.1695L15.9999 17.1795Z" fill="#848F98"/>
</g>
</svg>
