<svg width="160" height="160" viewBox="0 0 160 160" fill="none" xmlns="http://www.w3.org/2000/svg">
<path opacity="0.3" d="M136.666 67.9335H117.399C101.599 67.9335 88.7327 55.0668 88.7327 39.2668V20.0002C88.7327 16.3335 85.7327 13.3335 82.066 13.3335H53.7993C33.266 13.3335 16.666 26.6668 16.666 50.4668V109.534C16.666 133.334 33.266 146.667 53.7993 146.667H106.199C126.733 146.667 143.333 133.334 143.333 109.534V74.6002C143.333 70.9335 140.333 67.9335 136.666 67.9335Z" fill="#E2EAFF"/>
<path d="M105.332 14.7331C102.599 11.9998 97.8652 13.8665 97.8652 17.6665V40.9331C97.8652 50.6665 106.132 58.7331 116.199 58.7331C122.532 58.7998 131.332 58.7998 138.865 58.7998C142.665 58.7998 144.665 54.3331 141.999 51.6665C132.399 41.9998 115.199 24.5998 105.332 14.7331Z" fill="#E2EAFF"/>
<path d="M90 91.6665H50C47.2667 91.6665 45 89.3998 45 86.6665C45 83.9332 47.2667 81.6665 50 81.6665H90C92.7333 81.6665 95 83.9332 95 86.6665C95 89.3998 92.7333 91.6665 90 91.6665Z" fill="#E2EAFF"/>
<path d="M76.6667 118.333H50C47.2667 118.333 45 116.067 45 113.333C45 110.6 47.2667 108.333 50 108.333H76.6667C79.4 108.333 81.6667 110.6 81.6667 113.333C81.6667 116.067 79.4 118.333 76.6667 118.333Z" fill="#E2EAFF"/>
</svg>
