<svg width="64" height="64" viewBox="0 0 64 64" fill="none" xmlns="http://www.w3.org/2000/svg">
<mask id="mask0_1_2060" style="mask-type:alpha" maskUnits="userSpaceOnUse" x="0" y="0" width="64" height="64">
<rect width="64" height="64" fill="#D9D9D9"/>
</mask>
<g mask="url(#mask0_1_2060)">
<path d="M31.6208 31.9998L20.1081 16.2612C19.8583 15.9469 19.8257 15.6025 20.0101 15.2278C20.195 14.8536 20.5077 14.6665 20.9481 14.6665C21.0979 14.6665 21.2368 14.7029 21.3648 14.7758C21.4932 14.8492 21.611 14.9427 21.7181 15.0565L34.1434 31.9998L21.7181 48.8918C21.6097 49.0398 21.4905 49.1505 21.3608 49.2238C21.231 49.2967 21.0903 49.3332 20.9388 49.3332C20.5148 49.3332 20.2103 49.1485 20.0254 48.7792C19.841 48.4098 19.8737 48.063 20.1234 47.7385L31.6208 31.9998ZM47.4974 31.9998L35.9848 16.2612C35.735 15.9469 35.7025 15.6025 35.8874 15.2278C36.0719 14.8536 36.3845 14.6665 36.8254 14.6665C36.9748 14.6665 37.1137 14.7029 37.2421 14.7758C37.3701 14.8492 37.4877 14.9427 37.5948 15.0565L50.0208 31.9998L37.5948 48.8918C37.4868 49.0398 37.3677 49.1505 37.2374 49.2238C37.1077 49.2967 36.967 49.3332 36.8154 49.3332C36.3914 49.3332 36.0872 49.1485 35.9028 48.7792C35.7179 48.4098 35.7674 48.063 36.0514 47.7385L47.4974 31.9998Z" fill="#004C84"/>
</g>
</svg>
