<svg width="32" height="32" viewBox="0 0 32 32" fill="none" xmlns="http://www.w3.org/2000/svg">
<mask id="mask0_1_4164" style="mask-type:alpha" maskUnits="userSpaceOnUse" x="0" y="0" width="32" height="32">
<rect width="32" height="32" fill="#848F98"/>
</mask>
<g mask="url(#mask0_1_4164)">
<path d="M16.0001 17.1795L9.01048 24.1695C8.84982 24.3301 8.65537 24.4126 8.42715 24.4168C8.19893 24.421 8.00015 24.3386 7.83082 24.1695C7.6617 24.0001 7.57715 23.8035 7.57715 23.5795C7.57715 23.3557 7.6617 23.1592 7.83082 22.9898L14.8208 16.0001L7.83082 9.01048C7.67015 8.84982 7.5877 8.65537 7.58348 8.42715C7.57926 8.19893 7.6617 8.00015 7.83082 7.83081C8.00015 7.6617 8.19682 7.57715 8.42082 7.57715C8.64459 7.57715 8.84115 7.6617 9.01048 7.83081L16.0001 14.8208L22.9898 7.83081C23.1505 7.67015 23.3449 7.5877 23.5731 7.58348C23.8014 7.57926 24.0001 7.6617 24.1695 7.83081C24.3386 8.00015 24.4231 8.19682 24.4231 8.42082C24.4231 8.64459 24.3386 8.84115 24.1695 9.01048L17.1795 16.0001L24.1695 22.9898C24.3301 23.1505 24.4126 23.3449 24.4168 23.5731C24.421 23.8014 24.3386 24.0001 24.1695 24.1695C24.0001 24.3386 23.8035 24.4231 23.5795 24.4231C23.3557 24.4231 23.1592 24.3386 22.9898 24.1695L16.0001 17.1795Z" fill="#848F98"/>
</g>
</svg>
